<svg width="32" height="32" viewBox="0 0 32 32" fill="none" xmlns="http://www.w3.org/2000/svg">
<path d="M22.2143 15.1429H21.1429V12.2857C21.1429 11.4929 20.5 10.8571 19.7143 10.8571H16.8571V9.78571C16.8571 9.31211 16.669 8.85791 16.3341 8.52302C15.9992 8.18814 15.545 8 15.0714 8C14.5978 8 14.1436 8.18814 13.8087 8.52302C13.4739 8.85791 13.2857 9.31211 13.2857 9.78571V10.8571H10.4286C10.0497 10.8571 9.68633 11.0077 9.41842 11.2756C9.15051 11.5435 9 11.9068 9 12.2857V15H10.0714C11.1429 15 12 15.8571 12 16.9286C12 18 11.1429 18.8571 10.0714 18.8571H9V21.5714C9 21.9503 9.15051 22.3137 9.41842 22.5816C9.68633 22.8495 10.0497 23 10.4286 23H13.1429V21.9286C13.1429 20.8571 14 20 15.0714 20C16.1429 20 17 20.8571 17 21.9286V23H19.7143C20.0932 23 20.4565 22.8495 20.7244 22.5816C20.9923 22.3137 21.1429 21.9503 21.1429 21.5714V18.7143H22.2143C22.6879 18.7143 23.1421 18.5261 23.477 18.1913C23.8119 17.8564 24 17.4022 24 16.9286C24 16.455 23.8119 16.0008 23.477 15.6659C23.1421 15.331 22.6879 15.1429 22.2143 15.1429Z" fill="currentColor"/>
</svg>
