<svg width="30" height="30" viewBox="0 0 30 30" fill="none" xmlns="http://www.w3.org/2000/svg">
<path fill-rule="evenodd" clip-rule="evenodd" d="M18.3445 13.2639V6.06951L22.0616 5.27165C22.7749 5.11855 23.476 5.57834 23.6277 6.29863L27.4709 24.5574C27.6225 25.2777 27.1672 25.9857 26.4539 26.1387L22.5794 26.9705C21.8661 27.1235 21.165 26.6638 21.0134 25.9434L18.3445 13.2639ZM22.7729 21.4769L23.3219 24.0849L24.6134 23.8077L24.0645 21.1997L22.7729 21.4769Z" fill="#FFA722"/>
<path fill-rule="evenodd" clip-rule="evenodd" d="M10.422 4.31105V27H3.82036C3.09115 27 2.5 26.4031 2.5 25.6667V4.33333C2.5 3.59696 3.09115 3 3.82036 3H9.10179C9.82363 3 10.4102 3.58495 10.422 4.31105ZM7.78143 24.3333V21.6667H5.14072V24.3333H7.78143Z" fill="#4340DB"/>
<path fill-rule="evenodd" clip-rule="evenodd" d="M10.4221 24.3333V27H17.0239C17.7501 27 18.3393 26.4081 18.3443 25.676V5.65729C18.3393 4.92523 17.7501 4.33333 17.0239 4.33333H10.4222L10.4221 4.32396V5.66667V17.6667V19V24.3333ZM13.0628 24.3333H15.7036V20.3333H13.0628V24.3333ZM15.7036 17.6667H15.7036V7H15.7036V17.6667Z" fill="#FF7A00"/>
</svg>
