<svg width="13" height="13" viewBox="0 0 13 13" fill="none" xmlns="http://www.w3.org/2000/svg">
<g clip-path="url(#clip0_1229_4354)">
<path d="M12.4584 6.49994L11.1367 4.99411L11.3209 3.00077L9.3655 2.55661L8.34175 0.834106L6.50008 1.62494L4.65841 0.834106L3.63466 2.55661L1.67925 2.99536L1.86341 4.98869L0.541748 6.49994L1.86341 8.00577L1.67925 10.0045L3.63466 10.4487L4.65841 12.1712L6.50008 11.3749L8.34175 12.1658L9.3655 10.4433L11.3209 9.99911L11.1367 8.00577L12.4584 6.49994ZM5.41675 9.20827L3.25008 7.04161L4.01383 6.27786L5.41675 7.67536L8.98633 4.10577L9.75008 4.87494L5.41675 9.20827Z" fill="#302DAC"/>
</g>
<defs>
<clipPath id="clip0_1229_4354">
<rect width="13" height="13" fill="white"/>
</clipPath>
</defs>
</svg>
