<svg width="131" height="25" viewBox="0 0 131 25" fill="none" xmlns="http://www.w3.org/2000/svg">
<path d="M0.9275 24V1.6H11.1675C13.2155 1.6 14.9755 1.93067 16.4475 2.592C17.9408 3.25333 19.0928 4.21333 19.9035 5.472C20.7142 6.70933 21.1195 8.18133 21.1195 9.888C21.1195 11.5733 20.7142 13.0347 19.9035 14.272C19.0928 15.488 17.9408 16.4267 16.4475 17.088C14.9755 17.728 13.2155 18.048 11.1675 18.048H4.4475L7.2635 15.392V24H0.9275ZM14.7835 24L9.2155 15.84H15.9675L21.5675 24H14.7835ZM7.2635 16.064L4.4475 13.152H10.7835C12.1062 13.152 13.0875 12.864 13.7275 12.288C14.3888 11.712 14.7195 10.912 14.7195 9.888C14.7195 8.84267 14.3888 8.032 13.7275 7.456C13.0875 6.88 12.1062 6.592 10.7835 6.592H4.4475L7.2635 3.68V16.064ZM33.415 24.288C31.367 24.288 29.575 23.904 28.039 23.136C26.5243 22.3467 25.3403 21.28 24.487 19.936C23.655 18.5707 23.239 17.024 23.239 15.296C23.239 13.568 23.6443 12.032 24.455 10.688C25.287 9.32267 26.4283 8.26667 27.879 7.52C29.3297 6.752 30.9617 6.368 32.775 6.368C34.4817 6.368 36.039 6.72 37.447 7.424C38.855 8.10667 39.975 9.12 40.807 10.464C41.639 11.808 42.055 13.44 42.055 15.36C42.055 15.5733 42.0443 15.8187 42.023 16.096C42.0017 16.3733 41.9803 16.6293 41.959 16.864H28.231V13.664H38.727L36.423 14.56C36.4443 13.7707 36.295 13.088 35.975 12.512C35.6763 11.936 35.2497 11.488 34.695 11.168C34.1617 10.848 33.5323 10.688 32.807 10.688C32.0817 10.688 31.4417 10.848 30.887 11.168C30.3537 11.488 29.9377 11.9467 29.639 12.544C29.3403 13.12 29.191 13.8027 29.191 14.592V15.52C29.191 16.3733 29.3617 17.1093 29.703 17.728C30.0657 18.3467 30.5777 18.8267 31.239 19.168C31.9003 19.488 32.6897 19.648 33.607 19.648C34.4603 19.648 35.1857 19.5307 35.783 19.296C36.4017 19.04 37.0097 18.656 37.607 18.144L40.807 21.472C39.975 22.3893 38.951 23.0933 37.735 23.584C36.519 24.0533 35.079 24.288 33.415 24.288ZM56.1543 6.368C57.4983 6.368 58.7143 6.64533 59.8022 7.2C60.8903 7.73333 61.7436 8.56533 62.3623 9.696C63.0023 10.8267 63.3223 12.288 63.3223 14.08V24H57.2423V15.072C57.2423 13.8347 56.9863 12.9387 56.4743 12.384C55.9836 11.808 55.2903 11.52 54.3943 11.52C53.7543 11.52 53.1676 11.6693 52.6343 11.968C52.1009 12.2453 51.6849 12.6827 51.3863 13.28C51.0876 13.8773 50.9383 14.656 50.9383 15.616V24H44.8583V6.656H50.6503V11.584L49.5303 10.144C50.1916 8.88533 51.0983 7.94667 52.2503 7.328C53.4023 6.688 54.7036 6.368 56.1543 6.368ZM66.2435 24V20.416L75.9715 9.216L76.9955 11.168H66.4675V6.656H81.9235V10.208L72.1635 21.44L71.1395 19.456H82.2435V24H66.2435ZM84.0247 24V20.416L93.7528 9.216L94.7768 11.168H84.2488V6.656H99.7048V10.208L89.9448 21.44L88.9208 19.456H100.025V24H84.0247ZM102.702 24V0.255999H108.782V24H102.702ZM121.821 24.288C119.773 24.288 117.981 23.904 116.445 23.136C114.931 22.3467 113.747 21.28 112.893 19.936C112.061 18.5707 111.645 17.024 111.645 15.296C111.645 13.568 112.051 12.032 112.861 10.688C113.693 9.32267 114.835 8.26667 116.285 7.52C117.736 6.752 119.368 6.368 121.181 6.368C122.888 6.368 124.445 6.72 125.853 7.424C127.261 8.10667 128.381 9.12 129.213 10.464C130.045 11.808 130.461 13.44 130.461 15.36C130.461 15.5733 130.451 15.8187 130.429 16.096C130.408 16.3733 130.387 16.6293 130.365 16.864H116.637V13.664H127.133L124.829 14.56C124.851 13.7707 124.701 13.088 124.381 12.512C124.083 11.936 123.656 11.488 123.101 11.168C122.568 10.848 121.939 10.688 121.213 10.688C120.488 10.688 119.848 10.848 119.293 11.168C118.76 11.488 118.344 11.9467 118.045 12.544C117.747 13.12 117.597 13.8027 117.597 14.592V15.52C117.597 16.3733 117.768 17.1093 118.109 17.728C118.472 18.3467 118.984 18.8267 119.645 19.168C120.307 19.488 121.096 19.648 122.013 19.648C122.867 19.648 123.592 19.5307 124.189 19.296C124.808 19.04 125.416 18.656 126.013 18.144L129.213 21.472C128.381 22.3893 127.357 23.0933 126.141 23.584C124.925 24.0533 123.485 24.288 121.821 24.288Z" fill="currentColor"/>
</svg>
