<svg width="10" height="10" viewBox="0 0 10 10" fill="none" xmlns="http://www.w3.org/2000/svg">
<path d="M0.492432 5C0.884311 2.86657 2.75347 1.25 5.00021 1.25C7.24691 1.25 9.11608 2.86657 9.50796 5C9.11608 7.13342 7.24691 8.75 5.00021 8.75C2.75347 8.75 0.884311 7.13342 0.492432 5ZM5.00021 7.08333C6.15079 7.08333 7.08354 6.15058 7.08354 5C7.08354 3.84941 6.15079 2.91667 5.00021 2.91667C3.8496 2.91667 2.91686 3.84941 2.91686 5C2.91686 6.15058 3.8496 7.08333 5.00021 7.08333ZM5.00021 6.25C4.30983 6.25 3.75019 5.69037 3.75019 5C3.75019 4.30962 4.30983 3.75 5.00021 3.75C5.69054 3.75 6.25021 4.30962 6.25021 5C6.25021 5.69037 5.69054 6.25 5.00021 6.25Z" fill="#767D86"/>
</svg>
