<svg width="32" height="32" viewBox="0 0 32 32" fill="none" xmlns="http://www.w3.org/2000/svg">
<path d="M18.7679 11.51L13.5479 2.93001C13.2079 2.35001 12.5979 2 11.9279 2H5.33786C3.88786 2 2.97786 3.56001 3.68786 4.82001C5.00786 7.15001 6.86786 9.14001 9.11786 10.6C9.87786 11.19 10.8179 11.51 11.7879 11.51H18.7679Z" fill="#0074BA"/>
<path d="M26.6578 2H20.0678C19.3978 2 18.7878 2.35001 18.4478 2.93001L13.2278 11.51H20.2178C21.1878 11.51 22.1178 11.19 22.8878 10.6C25.1378 9.14001 26.9978 7.16001 28.3178 4.82001C29.0178 3.56001 28.1078 2 26.6578 2Z" fill="#00A6ED"/>
<path d="M15.9902 29.9999C21.5351 29.9999 26.0302 25.3929 26.0302 19.7099C26.0302 14.0269 21.5351 9.41992 15.9902 9.41992C10.4453 9.41992 5.9502 14.0269 5.9502 19.7099C5.9502 25.3929 10.4453 29.9999 15.9902 29.9999Z" fill="#FFB02E"/>
<path d="M14.0759 16.041C14.0759 15.4887 14.5236 15.041 15.0759 15.041H16C16.5523 15.041 17 15.4887 17 16.041V23C17 23.5523 16.5523 24 16 24C15.4477 24 15 23.5523 15 23V17.0382C14.4832 16.9994 14.0759 16.5678 14.0759 16.041Z" fill="#6D4534"/>
<path d="M16.0002 28.7599C13.6402 28.7599 11.4202 27.8199 9.76017 26.1099C8.09017 24.3999 7.17017 22.1299 7.17017 19.7099C7.17017 17.2899 8.09017 15.0199 9.76017 13.3099C13.2002 9.77985 18.8002 9.77985 22.2502 13.3099C25.6902 16.8399 25.6902 22.5799 22.2502 26.1099C20.5702 27.8199 18.3502 28.7599 16.0002 28.7599ZM15.9902 11.8899C14.0402 11.8899 12.0802 12.6499 10.6002 14.1799C9.16017 15.6599 8.37017 17.6199 8.37017 19.7099C8.37017 21.7999 9.16017 23.7599 10.6002 25.2399C12.0402 26.7199 13.9602 27.5299 15.9902 27.5299C18.0302 27.5299 19.9402 26.7199 21.3802 25.2399C24.3502 22.1899 24.3502 17.2299 21.3802 14.1799C19.9002 12.6499 17.9502 11.8899 15.9902 11.8899Z" fill="#FCD53F"/>
</svg>
