<svg width="22" height="22" viewBox="0 0 22 22" fill="none" xmlns="http://www.w3.org/2000/svg">
<path d="M11.0001 6.41665C15.0502 6.41665 18.3334 9.69985 18.3334 13.75C18.3334 17.8001 15.0502 21.0833 11.0001 21.0833C6.94999 21.0833 3.66675 17.8001 3.66675 13.75C3.66675 9.69985 6.94999 6.41665 11.0001 6.41665ZM11.0001 9.62496L9.78779 12.0814L7.07698 12.4752L9.03852 14.3873L8.57547 17.0872L11.0001 15.8125L13.4247 17.0872L12.9617 14.3873L14.9232 12.4752L12.2124 12.0814L11.0001 9.62496ZM11.9167 1.8324L16.5001 1.83331V4.58331L15.2503 5.62608C14.2364 5.09455 13.1107 4.74726 11.9178 4.62868L11.9167 1.8324ZM10.0834 1.8324L10.0831 4.62861C8.89028 4.74707 7.76467 5.09423 6.75079 5.6256L5.50008 4.58331V1.83331L10.0834 1.8324Z" fill="#111111"/>
</svg>
