<svg width="14" height="14" viewBox="0 0 14 14" fill="none" xmlns="http://www.w3.org/2000/svg">
<path d="M7.00008 12.8333C3.77842 12.8333 1.16675 10.2216 1.16675 6.99996C1.16675 3.7783 3.77842 1.16663 7.00008 1.16663C10.2217 1.16663 12.8334 3.7783 12.8334 6.99996C12.8334 10.2216 10.2217 12.8333 7.00008 12.8333ZM7.00008 11.6666C9.57742 11.6666 11.6667 9.5773 11.6667 6.99996C11.6667 4.42263 9.57742 2.33329 7.00008 2.33329C4.42275 2.33329 2.33341 4.42263 2.33341 6.99996C2.33341 9.5773 4.42275 11.6666 7.00008 11.6666ZM6.41675 8.74996H7.58342V9.91663H6.41675V8.74996ZM6.41675 4.08329H7.58342V7.58329H6.41675V4.08329Z" fill="currentColor"/>
</svg>
