<svg width="25" height="25" viewBox="0 0 25 25" fill="none" xmlns="http://www.w3.org/2000/svg">
<path d="M17.7084 15.8806V23.0384C17.7084 23.326 17.4752 23.5593 17.1876 23.5593C17.0932 23.5593 17.0006 23.5336 16.9197 23.4851L12.5001 20.8333L8.08055 23.4851C7.83389 23.633 7.51397 23.553 7.36597 23.3064C7.3174 23.2254 7.29175 23.1328 7.29175 23.0384V15.8806C5.38661 14.3534 4.16675 12.0066 4.16675 9.37496C4.16675 4.77258 7.89771 1.04163 12.5001 1.04163C17.1025 1.04163 20.8334 4.77258 20.8334 9.37496C20.8334 12.0066 19.6135 14.3534 17.7084 15.8806ZM12.5001 15.625C15.9519 15.625 18.7501 12.8267 18.7501 9.37496C18.7501 5.92318 15.9519 3.12496 12.5001 3.12496C9.0483 3.12496 6.25008 5.92318 6.25008 9.37496C6.25008 12.8267 9.0483 15.625 12.5001 15.625ZM12.5001 13.5416C10.1989 13.5416 8.33341 11.6761 8.33341 9.37496C8.33341 7.07377 10.1989 5.20829 12.5001 5.20829C14.8012 5.20829 16.6667 7.07377 16.6667 9.37496C16.6667 11.6761 14.8012 13.5416 12.5001 13.5416Z" fill="currentColor"/>
</svg>
