<svg width="80" height="80" viewBox="0 0 80 80" fill="none" xmlns="http://www.w3.org/2000/svg">
<path d="M45.2529 57.5713L28.2191 48.2799C26.1103 50.3733 23.2062 51.6666 19.9999 51.6666C13.5566 51.6666 8.33325 46.4433 8.33325 39.9999C8.33325 33.5566 13.5566 28.3333 19.9999 28.3333C23.206 28.3333 26.11 29.6265 28.2187 31.7197L45.2529 22.4284C45.0872 21.6451 44.9999 20.8327 44.9999 19.9999C44.9999 13.5566 50.2233 8.33325 56.6666 8.33325C63.1099 8.33325 68.3333 13.5566 68.3333 19.9999C68.3333 26.4433 63.1099 31.6666 56.6666 31.6666C53.4603 31.6666 50.5563 30.3733 48.4476 28.2799L31.4134 37.5709C31.5793 38.3546 31.6666 39.1669 31.6666 39.9999C31.6666 40.8326 31.5794 41.6449 31.4135 42.4283L48.4476 51.7199C50.5566 49.6266 53.4606 48.3333 56.6666 48.3333C63.1099 48.3333 68.3333 53.5566 68.3333 59.9999C68.3333 66.4432 63.1099 71.6666 56.6666 71.6666C50.2233 71.6666 44.9999 66.4432 44.9999 59.9999C44.9999 59.1673 45.0872 58.3546 45.2529 57.5713Z" fill="#FF7A00"/>
</svg>
