<svg width="22" height="22" viewBox="0 0 22 22" fill="none" xmlns="http://www.w3.org/2000/svg">
<path d="M3.65256 3.49398L10.5 2L17.3474 3.49398C17.7288 3.57718 18 3.90919 18 4.29269V12.4636C18 14.105 17.1645 15.6378 15.7735 16.5483L10.5 20L5.2265 16.5483C3.8355 15.6378 3 14.105 3 12.4636V4.29269C3 3.90919 3.27128 3.57718 3.65256 3.49398ZM10.5 12.2273L12.9491 13.4914L12.4813 10.8139L14.4628 8.91767L11.7246 8.52702L10.5 6.09091L9.27542 8.52702L6.53726 8.91767L8.51864 10.8139L8.0509 13.4914L10.5 12.2273Z" fill="url(#paint0_linear_1236_4430)"/>
<defs>
<linearGradient id="paint0_linear_1236_4430" x1="6.2" y1="3.14545" x2="13.5741" y2="19.155" gradientUnits="userSpaceOnUse">
<stop stop-color="#4340DB"/>
<stop offset="1" stop-color="#1A17A3"/>
</linearGradient>
</defs>
</svg>
