<svg width="80" height="80" viewBox="0 0 80 80" fill="none" xmlns="http://www.w3.org/2000/svg">
<path d="M26.6667 13.3334C26.6667 17.0153 23.6819 20.0001 20 20.0001C16.3181 20.0001 13.3333 17.0153 13.3333 13.3334C13.3333 9.65151 16.3181 6.66675 20 6.66675C23.6819 6.66675 26.6667 9.65151 26.6667 13.3334ZM16.6667 53.3334V73.3334H10V33.3334C10 27.8106 14.4772 23.3334 20 23.3334C22.7353 23.3334 25.2141 24.4316 27.0195 26.2112L34.9343 33.6857L42.6437 25.9764L47.3577 30.6904L35.067 42.9811L30 38.1957V73.3334H23.3333V53.3334H16.6667ZM33.3333 16.6667H63.3333V46.6667H33.3333V53.3334H47.8847L57.2963 73.3334H64.6643L55.2527 53.3334H66.6667C68.5077 53.3334 70 51.8411 70 50.0001V13.3334C70 11.4925 68.5077 10.0001 66.6667 10.0001H33.3333V16.6667Z" fill="#4340DB"/>
</svg>
