<svg width="13" height="13" viewBox="0 0 13 13" fill="none" xmlns="http://www.w3.org/2000/svg">
<g clip-path="url(#clip0_1255_2492)">
<path d="M0.8125 2.4375C0.8125 1.54004 1.54004 0.8125 2.4375 0.8125H10.5625C11.46 0.8125 12.1875 1.54004 12.1875 2.4375V10.5625C12.1875 11.46 11.46 12.1875 10.5625 12.1875H2.4375C1.54004 12.1875 0.8125 11.46 0.8125 10.5625V2.4375Z" fill="#4340DB"/>
<path d="M5.37956 9.34375C5.2239 9.34375 5.06823 9.28549 4.94933 9.16872L2.61566 6.87692C2.37811 6.64363 2.37811 6.26519 2.61566 6.0319C2.85321 5.79861 3.23857 5.79861 3.47612 6.0319L5.37956 7.90119L9.52388 3.83122C9.76143 3.59793 10.1468 3.59793 10.3843 3.83122C10.6219 4.06451 10.6219 4.44295 10.3843 4.67623L5.80979 9.16872C5.69114 9.28549 5.53522 9.34375 5.37956 9.34375Z" fill="#F4F4F4"/>
</g>
<defs>
<clipPath id="clip0_1255_2492">
<rect width="13" height="13" fill="white"/>
</clipPath>
</defs>
</svg>
