<svg width="24" height="24" viewBox="0 0 24 24" fill="none" xmlns="http://www.w3.org/2000/svg">
<path d="M8.5 4.66992C8.5 3.01307 9.84315 1.66992 11.5 1.66992C13.1569 1.66992 14.5 3.01307 14.5 4.66992C14.5 5.02056 14.4398 5.35714 14.3293 5.66992H20.5C21.0523 5.66992 21.5 6.11764 21.5 6.66992V9.79594C21.5 10.1051 21.357 10.3969 21.1127 10.5863C20.8683 10.7757 20.5501 10.8414 20.2507 10.7644C20.0119 10.7029 19.7605 10.6699 19.5 10.6699C17.8431 10.6699 16.5 12.013 16.5 13.6699C16.5 15.3268 17.8431 16.6699 19.5 16.6699C19.7605 16.6699 20.0119 16.6369 20.2507 16.5754C20.5501 16.4984 20.8683 16.5641 21.1127 16.7535C21.357 16.943 21.5 17.2347 21.5 17.5439V20.6699C21.5 21.2222 21.0523 21.6699 20.5 21.6699H4.5C3.94772 21.6699 3.5 21.2222 3.5 20.6699V6.66992C3.5 6.11764 3.94772 5.66992 4.5 5.66992H8.67071C8.56015 5.35714 8.5 5.02056 8.5 4.66992Z" fill="currentColor"/>
</svg>
