<svg width="32" height="32" viewBox="0 0 32 32" fill="none" xmlns="http://www.w3.org/2000/svg">
<path d="M18.7676 11.51L13.5476 2.93001C13.2076 2.35001 12.5976 2 11.9276 2H5.33762C3.88762 2 2.97762 3.56001 3.68762 4.82001C5.00762 7.15001 6.86762 9.14001 9.11762 10.6C9.87762 11.19 10.8176 11.51 11.7876 11.51H18.7676Z" fill="#0074BA"/>
<path d="M26.6575 2H20.0675C19.3975 2 18.7875 2.35001 18.4475 2.93001L13.2275 11.51H20.2175C21.1875 11.51 22.1175 11.19 22.8875 10.6C25.1375 9.14001 26.9975 7.16001 28.3175 4.82001C29.0175 3.56001 28.1075 2 26.6575 2Z" fill="#00A6ED"/>
<path d="M15.9599 30.0011C21.5049 30.0011 25.9999 25.3942 25.9999 19.7112C25.9999 14.0281 21.5049 9.42114 15.9599 9.42114C10.415 9.42114 5.91992 14.0281 5.91992 19.7112C5.91992 25.3942 10.415 30.0011 15.9599 30.0011Z" fill="#BEBEBE"/>
<path d="M15.9599 28.7611C13.5999 28.7611 11.3799 27.8211 9.71988 26.1111C8.04988 24.4011 7.12988 22.1311 7.12988 19.7111C7.12988 17.2911 8.04988 15.0211 9.71988 13.3111C13.1599 9.78107 18.7599 9.78107 22.2099 13.3111C25.6499 16.8411 25.6499 22.5811 22.2099 26.1111C20.5299 27.8211 18.3099 28.7611 15.9599 28.7611ZM15.9499 11.8911C13.9999 11.8911 12.0399 12.6511 10.5599 14.1811C9.11988 15.6611 8.32988 17.6211 8.32988 19.7111C8.32988 21.8011 9.11988 23.7611 10.5599 25.2411C11.9999 26.7211 13.9199 27.5311 15.9499 27.5311C17.9899 27.5311 19.8999 26.7211 21.3399 25.2411C24.3099 22.1911 24.3099 17.2311 21.3399 14.1811C19.8599 12.6511 17.9099 11.8911 15.9499 11.8911Z" fill="#E6E6E6"/>
<path d="M17.8376 23.9501H13.8676C13.4776 23.9501 13.1276 23.7301 12.9576 23.3701C12.7876 23.0201 12.8376 22.6001 13.0876 22.3001L16.3876 18.2501C16.6476 17.9301 16.5276 17.5901 16.4876 17.4901C16.4376 17.3701 16.2776 17.1001 15.9076 17.0901C15.8976 17.0901 15.8776 17.0901 15.8576 17.0901C15.5376 17.0901 15.2476 17.2401 15.0576 17.5001C14.7376 17.9501 14.1076 18.0601 13.6476 17.7401C13.1876 17.4201 13.0876 16.7901 13.4076 16.3301C13.9676 15.5401 14.8776 15.0701 15.8476 15.0701C15.8976 15.0701 15.9376 15.0701 15.9776 15.0701C16.9976 15.1201 17.8876 15.7301 18.3076 16.6601C18.7376 17.6201 18.5976 18.7101 17.9376 19.5201L15.9876 21.9201H17.8276C18.3876 21.9201 18.8376 22.3701 18.8376 22.9301C18.8376 23.4901 18.3976 23.9501 17.8376 23.9501Z" fill="#636363"/>
</svg>
