<svg width="13" height="13" viewBox="0 0 13 13" fill="none" xmlns="http://www.w3.org/2000/svg">
<g clip-path="url(#clip0_1255_2498)">
<path d="M0.8125 2.4375C0.8125 1.54004 1.54004 0.8125 2.4375 0.8125H10.5625C11.46 0.8125 12.1875 1.54004 12.1875 2.4375V10.5625C12.1875 11.46 11.46 12.1875 10.5625 12.1875H2.4375C1.54004 12.1875 0.8125 11.46 0.8125 10.5625V2.4375Z" fill="#FF7A00"/>
<path d="M6.21827 2.50536C6.37556 2.35401 6.62435 2.35401 6.78164 2.50536L8.93995 4.5822C9.20347 4.83578 9.02398 5.28119 8.65827 5.28119H7.41402C7.35792 5.28119 7.31245 5.32666 7.31245 5.38275V7.61712C7.31245 7.67322 7.35792 7.71869 7.41402 7.71869L8.65827 7.71869C9.02398 7.71869 9.20347 8.1641 8.93995 8.41767L6.78164 10.4945C6.62435 10.6459 6.37556 10.6459 6.21827 10.4945L4.05995 8.41767C3.79643 8.1641 3.97593 7.71869 4.34164 7.71869H5.58589C5.64198 7.71869 5.68745 7.67322 5.68745 7.61712V5.38275C5.68745 5.32666 5.64198 5.28119 5.58589 5.28119H4.34164C3.97593 5.28119 3.79643 4.83578 4.05995 4.5822L6.21827 2.50536Z" fill="white"/>
</g>
<defs>
<clipPath id="clip0_1255_2498">
<rect width="13" height="13" fill="white"/>
</clipPath>
</defs>
</svg>
