<svg width="16" height="16" viewBox="0 0 16 16" fill="none" xmlns="http://www.w3.org/2000/svg">
<path d="M11.7451 3.97869L12.7141 3.00977L13.6569 3.95258L12.6879 4.9215C13.509 5.94795 14 7.24996 14 8.66663C14 11.9804 11.3137 14.6666 8 14.6666C4.68629 14.6666 2 11.9804 2 8.66663C2 5.35292 4.68629 2.66663 8 2.66663C9.41667 2.66663 10.7187 3.15761 11.7451 3.97869ZM8 13.3333C10.5773 13.3333 12.6667 11.244 12.6667 8.66663C12.6667 6.0893 10.5773 3.99996 8 3.99996C5.42267 3.99996 3.33333 6.0893 3.33333 8.66663C3.33333 11.244 5.42267 13.3333 8 13.3333ZM7.33333 5.33329H8.66667V9.33329H7.33333V5.33329ZM5.33333 0.666626H10.6667V1.99996H5.33333V0.666626Z" fill="currentColor"/>
</svg>
