<svg width="23" height="23" viewBox="0 0 23 23" fill="none" xmlns="http://www.w3.org/2000/svg">
<path d="M11.5 14.8541C10.6104 14.8541 9.75724 14.5007 9.12821 13.8717C8.49919 13.2427 8.1458 12.3895 8.1458 11.5C8.1458 10.6104 8.49919 9.75723 9.12821 9.12821C9.75724 8.49918 10.6104 8.14579 11.5 8.14579C12.3895 8.14579 13.2427 8.49918 13.8717 9.12821C14.5008 9.75723 14.8541 10.6104 14.8541 11.5C14.8541 12.3895 14.5008 13.2427 13.8717 13.8717C13.2427 14.5007 12.3895 14.8541 11.5 14.8541ZM18.6204 12.4295C18.6587 12.1229 18.6875 11.8162 18.6875 11.5C18.6875 11.1837 18.6587 10.8675 18.6204 10.5416L20.6425 8.97954C20.8246 8.83579 20.8725 8.57704 20.7575 8.36621L18.8408 5.05038C18.7258 4.83954 18.4671 4.75329 18.2562 4.83954L15.87 5.79788C15.3716 5.42413 14.8541 5.09829 14.2504 4.85871L13.8958 2.31913C13.8575 2.08913 13.6562 1.91663 13.4166 1.91663H9.5833C9.34372 1.91663 9.14247 2.08913 9.10414 2.31913L8.74955 4.85871C8.1458 5.09829 7.6283 5.42413 7.12997 5.79788L4.74372 4.83954C4.53288 4.75329 4.27414 4.83954 4.15914 5.05038L2.24247 8.36621C2.11788 8.57704 2.17538 8.83579 2.35747 8.97954L4.37955 10.5416C4.34122 10.8675 4.31247 11.1837 4.31247 11.5C4.31247 11.8162 4.34122 12.1229 4.37955 12.4295L2.35747 14.0204C2.17538 14.1641 2.11788 14.4229 2.24247 14.6337L4.15914 17.9495C4.27414 18.1604 4.53288 18.237 4.74372 18.1604L7.12997 17.1925C7.6283 17.5758 8.1458 17.9016 8.74955 18.1412L9.10414 20.6808C9.14247 20.9108 9.34372 21.0833 9.5833 21.0833H13.4166C13.6562 21.0833 13.8575 20.9108 13.8958 20.6808L14.2504 18.1412C14.8541 17.892 15.3716 17.5758 15.87 17.1925L18.2562 18.1604C18.4671 18.237 18.7258 18.1604 18.8408 17.9495L20.7575 14.6337C20.8725 14.4229 20.8246 14.1641 20.6425 14.0204L18.6204 12.4295Z" fill="currentColor"/>
</svg>
