<svg width="12" height="12" viewBox="0 0 12 12" fill="none" xmlns="http://www.w3.org/2000/svg">
<path d="M10.25 5.5H9.5V3.5C9.5 2.945 9.05 2.5 8.5 2.5H6.5V1.75C6.5 1.41848 6.3683 1.10054 6.13388 0.866117C5.89946 0.631696 5.58152 0.5 5.25 0.5C4.91848 0.5 4.60054 0.631696 4.36612 0.866117C4.1317 1.10054 4 1.41848 4 1.75V2.5H2C1.73478 2.5 1.48043 2.60536 1.29289 2.79289C1.10536 2.98043 1 3.23478 1 3.5V5.4H1.75C2.5 5.4 3.1 6 3.1 6.75C3.1 7.5 2.5 8.1 1.75 8.1H1V10C1 10.2652 1.10536 10.5196 1.29289 10.7071C1.48043 10.8946 1.73478 11 2 11H3.9V10.25C3.9 9.5 4.5 8.9 5.25 8.9C6 8.9 6.6 9.5 6.6 10.25V11H8.5C8.76522 11 9.01957 10.8946 9.20711 10.7071C9.39464 10.5196 9.5 10.2652 9.5 10V8H10.25C10.5815 8 10.8995 7.8683 11.1339 7.63388C11.3683 7.39946 11.5 7.08152 11.5 6.75C11.5 6.41848 11.3683 6.10054 11.1339 5.86612C10.8995 5.6317 10.5815 5.5 10.25 5.5Z" fill="currentColor"/>
</svg>
