<svg width="16" height="16" viewBox="0 0 16 16" fill="none" xmlns="http://www.w3.org/2000/svg">
<path d="M7.99992 1.33337C6.68138 1.33337 5.39245 1.72437 4.29612 2.45691C3.19979 3.18945 2.34531 4.23064 1.84072 5.44882C1.33614 6.66699 1.20412 8.00744 1.46135 9.30064C1.71859 10.5938 2.35353 11.7817 3.28588 12.7141C4.21823 13.6464 5.40611 14.2814 6.69932 14.5386C7.99253 14.7958 9.33297 14.6638 10.5511 14.1592C11.7693 13.6547 12.8105 12.8002 13.5431 11.7038C14.2756 10.6075 14.6666 9.31858 14.6666 8.00004C14.6666 7.12456 14.4942 6.25766 14.1591 5.44882C13.8241 4.63998 13.333 3.90505 12.714 3.286C12.0949 2.66694 11.36 2.17588 10.5511 1.84084C9.74231 1.50581 8.8754 1.33337 7.99992 1.33337ZM5.66659 5.33337C5.86437 5.33337 6.05771 5.39202 6.22216 5.5019C6.38661 5.61179 6.51478 5.76796 6.59047 5.95069C6.66616 6.13342 6.68596 6.33448 6.64737 6.52846C6.60879 6.72245 6.51355 6.90063 6.37369 7.04048C6.23384 7.18033 6.05566 7.27557 5.86168 7.31416C5.6677 7.35274 5.46663 7.33294 5.2839 7.25725C5.10118 7.18157 4.945 7.05339 4.83512 6.88894C4.72524 6.72449 4.66659 6.53116 4.66659 6.33337C4.67334 6.07028 4.78086 5.81983 4.96695 5.63374C5.15305 5.44765 5.4035 5.34012 5.66659 5.33337ZM11.3333 10.6667H8.66659C8.19782 10.666 7.73716 10.7889 7.33103 11.023C6.92489 11.2571 6.58764 11.5941 6.35325 12L5.19992 11.3334C5.55121 10.7249 6.05657 10.2197 6.66513 9.86863C7.2737 9.51753 7.96401 9.33292 8.66659 9.33337H11.3333M10.3333 7.33337C10.1355 7.33337 9.94213 7.27473 9.77769 7.16484C9.61324 7.05496 9.48506 6.89878 9.40938 6.71606C9.33369 6.53333 9.31388 6.33226 9.35247 6.13828C9.39105 5.9443 9.4863 5.76612 9.62615 5.62627C9.766 5.48641 9.94418 5.39117 10.1382 5.35259C10.3321 5.314 10.5332 5.33381 10.7159 5.40949C10.8987 5.48518 11.0548 5.61336 11.1647 5.7778C11.2746 5.94225 11.3333 6.13559 11.3333 6.33337C11.3265 6.59646 11.219 6.84691 11.0329 7.03301C10.8468 7.2191 10.5963 7.32662 10.3333 7.33337Z" fill="currentColor"/>
</svg>
