<svg width="10" height="10" viewBox="0 0 10 10" fill="none" xmlns="http://www.w3.org/2000/svg">
<path d="M8.85385 5.12121L9.5 5.80485L6.48615 9L4.88462 7.30303L5.53077 6.61939L6.48615 7.62788L8.85385 5.12121ZM3.73077 7.30303L5.11538 8.75758H0.5V7.78788C0.5 6.71636 2.15231 5.84848 4.19231 5.84848L5.06462 5.90182L3.73077 7.30303ZM4.19231 1C4.68194 1 5.15151 1.20433 5.49774 1.56804C5.84396 1.93174 6.03846 2.42503 6.03846 2.93939C6.03846 3.45375 5.84396 3.94705 5.49774 4.31075C5.15151 4.67446 4.68194 4.87879 4.19231 4.87879C3.70268 4.87879 3.2331 4.67446 2.88688 4.31075C2.54066 3.94705 2.34615 3.45375 2.34615 2.93939C2.34615 2.42503 2.54066 1.93174 2.88688 1.56804C3.2331 1.20433 3.70268 1 4.19231 1Z" fill="currentColor"/>
</svg>
