<svg width="24" height="24" viewBox="0 0 24 24" fill="none" xmlns="http://www.w3.org/2000/svg">
<mask id="mask0_2102_1620" style="mask-type:alpha" maskUnits="userSpaceOnUse" x="0" y="0" width="24" height="24">
<rect width="24" height="24" fill="#D9D9D9"/>
</mask>
<g mask="url(#mask0_2102_1620)">
<path d="M5.75 19.75C5.26875 19.75 4.85677 19.5786 4.51406 19.2359C4.17135 18.8932 4 18.4813 4 18V5.75C4 5.26875 4.17135 4.85677 4.51406 4.51406C4.85677 4.17135 5.26875 4 5.75 4H18C18.4813 4 18.8932 4.17135 19.2359 4.51406C19.5786 4.85677 19.75 5.26875 19.75 5.75V18C19.75 18.4813 19.5786 18.8932 19.2359 19.2359C18.8932 19.5786 18.4813 19.75 18 19.75H5.75ZM5.75 18H18V5.75H5.75V18Z" fill="currentColor"/>
</g>
</svg>
