<svg width="13" height="13" viewBox="0 0 13 13" fill="none" xmlns="http://www.w3.org/2000/svg">
<g clip-path="url(#clip0_1255_2489)">
<path d="M0.8125 2.4375C0.8125 1.54004 1.54004 0.8125 2.4375 0.8125H10.5625C11.46 0.8125 12.1875 1.54004 12.1875 2.4375V10.5625C12.1875 11.46 11.46 12.1875 10.5625 12.1875H2.4375C1.54004 12.1875 0.8125 11.46 0.8125 10.5625V2.4375Z" fill="#A3ABB3"/>
<path d="M8.76051 3.3777C8.99849 3.13972 9.38432 3.13972 9.6223 3.3777C9.86028 3.61568 9.86028 4.00151 9.6223 4.23949L7.36179 6.5L9.6223 8.76051C9.86028 8.99849 9.86028 9.38432 9.6223 9.6223C9.38432 9.86028 8.99849 9.86028 8.76051 9.6223L6.5 7.36179L4.23949 9.6223C4.00151 9.86028 3.61568 9.86028 3.3777 9.6223C3.13972 9.38432 3.13972 8.99849 3.3777 8.76051L5.63821 6.5L3.3777 4.23949C3.13972 4.00151 3.13972 3.61568 3.3777 3.3777C3.61568 3.13972 4.00151 3.13972 4.23949 3.3777L6.5 5.63821L8.76051 3.3777Z" fill="white"/>
</g>
<defs>
<clipPath id="clip0_1255_2489">
<rect width="13" height="13" fill="white"/>
</clipPath>
</defs>
</svg>
