<svg width="32" height="32" viewBox="0 0 32 32" fill="none" xmlns="http://www.w3.org/2000/svg">
<path d="M19.9913 12.8128L18.8917 5.98409C18.6207 5.52193 18.1347 5.24304 17.6008 5.24304H9.54999C8.39461 5.24304 7.66951 6.48608 8.23525 7.49006C9.28704 9.34664 10.7691 10.9323 12.5619 12.0956C13.1675 12.5658 13.9165 12.8207 14.6894 12.8207L19.9913 12.8128Z" fill="#4340DB"/>
<path d="M21.9278 5.24306L17.2027 5.24304C16.6688 5.24304 16.1827 5.52193 15.9118 5.98409L11.2266 12.8207H16.7963C17.5692 12.8207 18.3102 12.5658 18.9238 12.0956C20.7166 10.9323 22.1987 9.35461 23.2505 7.49007C23.8082 6.48609 23.0831 5.24306 21.9278 5.24306Z" fill="#7084EC"/>
<path d="M16 26.757C20.4182 26.757 24 23.0861 24 18.5578C24 14.0295 20.4182 10.3586 16 10.3586C11.5818 10.3586 8 14.0295 8 18.5578C8 23.0861 11.5818 26.757 16 26.757Z" fill="#DCAB87"/>
<path d="M16.0085 25.7688C14.128 25.7688 12.3591 25.0198 11.0364 23.6573C9.70572 22.2947 8.97266 20.486 8.97266 18.5577C8.97266 16.6294 9.70572 14.8206 11.0364 13.4581C13.7774 10.6453 18.2396 10.6453 20.9886 13.4581C23.7296 16.2708 23.7296 20.8445 20.9886 23.6573C19.6499 25.0198 17.881 25.7688 16.0085 25.7688ZM16.0005 12.3266C14.4467 12.3266 12.885 12.9322 11.7057 14.1513C10.5583 15.3306 9.92883 16.8923 9.92883 18.5577C9.92883 20.223 10.5583 21.7848 11.7057 22.964C12.8531 24.1433 14.383 24.7887 16.0005 24.7887C17.626 24.7887 19.1479 24.1433 20.2954 22.964C22.6619 20.5338 22.6619 16.5816 20.2954 14.1513C19.1161 12.9322 17.5623 12.3266 16.0005 12.3266Z" fill="#F3DECD"/>
<path d="M17.1255 17.4141L17.9601 15.9717C18.0978 15.7286 18.0978 15.4368 17.9601 15.1937C17.8223 14.9506 17.563 14.8048 17.2876 14.8048H14.8241C14.3946 14.8048 14.0463 15.1533 14.0463 15.5827C14.0463 16.0121 14.3946 16.3606 14.8241 16.3606H15.9424L15.3428 17.4059C15.2374 17.5356 15.1726 17.7058 15.1726 17.884C15.1726 18.3135 15.521 18.6619 15.9505 18.6619C16.4367 18.6619 16.8338 19.059 16.8338 19.5451C16.8338 20.0313 16.4367 20.4284 15.9505 20.4284C15.5778 20.4284 15.2455 20.1934 15.124 19.845C14.9782 19.4399 14.5405 19.2372 14.1354 19.375C13.7302 19.5208 13.5195 19.9584 13.6654 20.3636C14.0139 21.3279 14.9295 21.9761 15.9505 21.9761C17.2876 21.9761 18.3814 20.8903 18.3814 19.5451C18.3734 18.6214 17.871 17.8273 17.1255 17.4141Z" fill="#7A5F4C"/>
</svg>
