<svg width="22" height="22" viewBox="0 0 22 22" fill="none" xmlns="http://www.w3.org/2000/svg">
<path fill-rule="evenodd" clip-rule="evenodd" d="M11.0001 6.41666C15.0502 6.41666 18.3334 9.69985 18.3334 13.75C18.3334 17.8001 15.0502 21.0833 11.0001 21.0833C6.95001 21.0833 3.66675 17.8001 3.66675 13.75C3.66675 9.69985 6.95001 6.41666 11.0001 6.41666ZM11.9167 1.8324L16.5001 1.83331V4.58331L15.2503 5.62609C14.2364 5.09455 13.1107 4.74725 11.9178 4.62867L11.9167 1.8324ZM10.0834 1.8324L10.0832 4.62861C8.8903 4.74708 7.76469 5.09424 6.7508 5.6256L5.5001 4.58331V1.83331L10.0834 1.8324ZM11.0001 17.6C13.0656 17.6 14.7401 15.8763 14.7401 13.75C14.7401 11.6237 13.0656 9.89996 11.0001 9.89996C8.93454 9.89996 7.26007 11.6237 7.26007 13.75C7.26007 15.8763 8.93454 17.6 11.0001 17.6Z" fill="#636B95"/>
</svg>
