<svg width="32" height="32" viewBox="0 0 32 32" fill="none" xmlns="http://www.w3.org/2000/svg">
<path d="M19.9922 12.8128L18.8926 5.98409C18.6217 5.52193 18.1357 5.24304 17.6018 5.24304H9.55096C8.39558 5.24304 7.67049 6.48608 8.23622 7.49006C9.28802 9.34664 10.7701 10.9323 12.5629 12.0956C13.1685 12.5658 13.9175 12.8207 14.6904 12.8207L19.9922 12.8128Z" fill="#4340DB"/>
<path d="M21.9278 5.24306L17.2027 5.24304C16.6688 5.24304 16.1827 5.52193 15.9118 5.98409L11.2266 12.8207H16.7963C17.5692 12.8207 18.3102 12.5658 18.9238 12.0956C20.7166 10.9323 22.1987 9.35461 23.2505 7.49007C23.8082 6.48609 23.0831 5.24306 21.9278 5.24306Z" fill="#7084EC"/>
<path d="M16 26.757C20.4182 26.757 24 23.0861 24 18.5578C24 14.0295 20.4182 10.3586 16 10.3586C11.5818 10.3586 8 14.0295 8 18.5578C8 23.0861 11.5818 26.757 16 26.757Z" fill="#FFDB3C"/>
<path d="M14.4746 15.6343C14.4746 15.1942 14.8313 14.8375 15.2714 14.8375H16.0078C16.4478 14.8375 16.8046 15.1942 16.8046 15.6343V21.1793C16.8046 21.6194 16.4478 21.9761 16.0078 21.9761C15.5677 21.9761 15.2109 21.6194 15.2109 21.1793V16.4289C14.7991 16.3979 14.4746 16.054 14.4746 15.6343Z" fill="#857015"/>
<path d="M16.0075 25.769C14.127 25.769 12.3581 25.02 11.0354 23.6574C9.70475 22.2949 8.97168 20.4861 8.97168 18.5578C8.97168 16.6295 9.70475 14.8208 11.0354 13.4582C13.7764 10.6455 18.2386 10.6455 20.9876 13.4582C23.7286 16.271 23.7286 20.8447 20.9876 23.6574C19.649 25.02 17.88 25.769 16.0075 25.769ZM15.9996 12.3268C14.4458 12.3268 12.884 12.9323 11.7047 14.1515C10.5573 15.3307 9.92785 16.8925 9.92785 18.5578C9.92785 20.2232 10.5573 21.7849 11.7047 22.9642C12.8521 24.1435 14.382 24.7889 15.9996 24.7889C17.6251 24.7889 19.147 24.1435 20.2944 22.9642C22.6609 20.5339 22.6609 16.5817 20.2944 14.1515C19.1151 12.9323 17.5613 12.3268 15.9996 12.3268Z" fill="#FFF5C6"/>
</svg>
