<svg width="32" height="32" viewBox="0 0 32 32" fill="none" xmlns="http://www.w3.org/2000/svg">
<path d="M19.5625 18.7028V24.1067C19.5625 24.3238 19.3806 24.5 19.1562 24.5C19.0826 24.5 19.0104 24.4806 18.9473 24.4439L15.5 22.4419L12.0528 24.4439C11.8604 24.5556 11.6108 24.4952 11.4954 24.3091C11.4575 24.2479 11.4375 24.178 11.4375 24.1067V18.7028C9.95149 17.5499 9 15.7782 9 13.7913C9 10.3167 11.9101 7.5 15.5 7.5C19.0899 7.5 22 10.3167 22 13.7913C22 15.7782 21.0485 17.5499 19.5625 18.7028ZM15.5 18.5099C18.1924 18.5099 20.375 16.3973 20.375 13.7913C20.375 11.1854 18.1924 9.07284 15.5 9.07284C12.8076 9.07284 10.625 11.1854 10.625 13.7913C10.625 16.3973 12.8076 18.5099 15.5 18.5099ZM15.5 16.937C13.7051 16.937 12.25 15.5286 12.25 13.7913C12.25 12.054 13.7051 10.6457 15.5 10.6457C17.2949 10.6457 18.75 12.054 18.75 13.7913C18.75 15.5286 17.2949 16.937 15.5 16.937Z" fill="currentColor"/>
</svg>
