<svg width="32" height="32" viewBox="0 0 32 32" fill="none" xmlns="http://www.w3.org/2000/svg">
<path d="M23.8571 14.0714H22.5714V10.6429C22.5714 9.69143 21.8 8.92857 20.8571 8.92857H17.4286V7.64286C17.4286 7.07454 17.2028 6.52949 16.8009 6.12763C16.3991 5.72576 15.854 5.5 15.2857 5.5C14.7174 5.5 14.1723 5.72576 13.7705 6.12763C13.3686 6.52949 13.1429 7.07454 13.1429 7.64286V8.92857H9.71429C9.25963 8.92857 8.82359 9.10918 8.5021 9.43067C8.18061 9.75216 8 10.1882 8 10.6429V13.9H9.28571C10.5714 13.9 11.6 14.9286 11.6 16.2143C11.6 17.5 10.5714 18.5286 9.28571 18.5286H8V21.7857C8 22.2404 8.18061 22.6764 8.5021 22.9979C8.82359 23.3194 9.25963 23.5 9.71429 23.5H12.9714V22.2143C12.9714 20.9286 14 19.9 15.2857 19.9C16.5714 19.9 17.6 20.9286 17.6 22.2143V23.5H20.8571C21.3118 23.5 21.7478 23.3194 22.0693 22.9979C22.3908 22.6764 22.5714 22.2404 22.5714 21.7857V18.3571H23.8571C24.4255 18.3571 24.9705 18.1314 25.3724 17.7295C25.7742 17.3277 26 16.7826 26 16.2143C26 15.646 25.7742 15.1009 25.3724 14.6991C24.9705 14.2972 24.4255 14.0714 23.8571 14.0714Z" fill="currentColor"/>
</svg>
