<svg width="32" height="32" viewBox="0 0 32 32" fill="none" xmlns="http://www.w3.org/2000/svg">
<path d="M20.0157 12.8123L18.9161 5.9836C18.6452 5.52145 18.1591 5.24255 17.6252 5.24255H9.5744C8.41902 5.24255 7.69392 6.48559 8.25966 7.48958C9.31145 9.34615 10.7935 10.9318 12.5863 12.0952C13.1919 12.5653 13.9409 12.8203 14.7138 12.8203L20.0157 12.8123Z" fill="#FF7A00"/>
<path d="M21.9522 5.24257L17.2271 5.24255C16.6932 5.24255 16.2072 5.52145 15.9362 5.9836L11.251 12.8203H16.8207C17.5936 12.8203 18.3346 12.5653 18.9482 12.0952C20.741 10.9318 22.2231 9.35413 23.2749 7.48958C23.8327 6.4856 23.1076 5.24257 21.9522 5.24257Z" fill="#FFA722"/>
<path d="M16 26.7575C20.4183 26.7575 24 23.0866 24 18.5583C24 14.03 20.4183 10.3591 16 10.3591C11.5817 10.3591 8 14.03 8 18.5583C8 23.0866 11.5817 26.7575 16 26.7575Z" fill="#D6D6D6"/>
<path d="M15.9997 25.7694C14.1193 25.7694 12.3503 25.0204 11.0276 23.6578C9.69694 22.2953 8.96387 20.4865 8.96387 18.5582C8.96387 16.6299 9.69694 14.8212 11.0276 13.4586C13.7687 10.6459 18.2308 10.6459 20.9798 13.4586C23.7209 16.2714 23.7209 20.8451 20.9798 23.6578C19.6412 25.0204 17.8723 25.7694 15.9997 25.7694ZM15.9918 12.3271C14.438 12.3271 12.8762 12.9327 11.697 14.1518C10.5495 15.3311 9.92004 16.8929 9.92004 18.5582C9.92004 20.2235 10.5495 21.7853 11.697 22.9646C12.8444 24.1439 14.3742 24.7893 15.9918 24.7893C17.6173 24.7893 19.1392 24.1439 20.2866 22.9646C22.6531 20.5343 22.6531 16.5821 20.2866 14.1518C19.1073 12.9327 17.5535 12.3271 15.9918 12.3271Z" fill="#F2F2F2"/>
<path d="M17.4962 21.9358H14.3329C14.0221 21.9358 13.7432 21.7605 13.6078 21.4737C13.4723 21.1948 13.5122 20.8601 13.7114 20.6211L16.3408 17.394C16.548 17.139 16.4524 16.8681 16.4205 16.7884C16.3807 16.6928 16.2532 16.4776 15.9584 16.4697C15.9504 16.4697 15.9345 16.4697 15.9185 16.4697C15.6635 16.4697 15.4325 16.5892 15.2811 16.7964C15.0261 17.1549 14.5241 17.2426 14.1576 16.9876C13.791 16.7326 13.7114 16.2306 13.9663 15.8641C14.4126 15.2346 15.1377 14.8601 15.9106 14.8601C15.9504 14.8601 15.9823 14.8601 16.0141 14.8601C16.8269 14.8999 17.5361 15.386 17.8707 16.127C18.2134 16.892 18.1018 17.7605 17.5759 18.4059L16.0221 20.3183H17.4883C17.9345 20.3183 18.293 20.6768 18.293 21.1231C18.293 21.5693 17.9424 21.9358 17.4962 21.9358Z" fill="#636363"/>
</svg>
