<svg width="22" height="22" viewBox="0 0 22 22" fill="none" xmlns="http://www.w3.org/2000/svg">
<path d="M11.9533 17.9758C11.6141 17.0041 10.7066 16.3166 9.62492 16.3166C8.24992 16.3166 7.14992 17.4166 7.14992 18.7916V20.1666H3.66659C2.65825 20.1666 1.83325 19.3508 1.83325 18.3333V14.85H3.20825C4.58325 14.85 5.68325 13.75 5.68325 12.375C5.68325 11 4.58325 9.89996 3.20825 9.89996H1.83325V6.41663C1.83325 5.40829 2.65825 4.58329 3.66659 4.58329H7.33325V3.20829C7.33325 1.94329 8.35992 0.916626 9.62492 0.916626C10.8899 0.916626 11.9166 1.94329 11.9166 3.20829V4.58329H15.5833C16.5916 4.58329 17.4166 5.39913 17.4166 6.41663V10.0833H18.7916C20.0566 10.0833 21.0833 11.11 21.0833 12.375C21.0833 12.6683 21.0283 12.9433 20.9274 13.1908C19.9741 12.4025 18.7549 11.9166 17.4166 11.9166C14.3824 11.9166 11.9166 14.3825 11.9166 17.4166C11.9166 17.6 11.9166 17.7925 11.9533 17.9758ZM16.4999 13.75V16.5H13.7499V18.3333H16.4999V21.0833H18.3333V18.3333H21.0833V16.5H18.3333V13.75H16.4999Z" fill="#4340DB"/>
</svg>
