<svg width="23" height="23" viewBox="0 0 23 23" fill="none" xmlns="http://www.w3.org/2000/svg">
<path d="M11.5001 7.66671H3.83341C3.32508 7.66671 2.83757 7.86864 2.47813 8.22809C2.11868 8.58753 1.91675 9.07504 1.91675 9.58337V13.4167C1.91675 13.925 2.11868 14.4125 2.47813 14.772C2.83757 15.1314 3.32508 15.3334 3.83341 15.3334H4.79175V19.1667C4.79175 19.4209 4.89272 19.6646 5.07244 19.8444C5.25216 20.0241 5.49592 20.125 5.75008 20.125H7.66675C7.92091 20.125 8.16467 20.0241 8.34439 19.8444C8.52411 19.6646 8.62508 19.4209 8.62508 19.1667V15.3334H11.5001L16.2917 19.1667V3.83337L11.5001 7.66671ZM20.6042 11.5C20.6042 13.1388 19.6842 14.6242 18.2084 15.3334V7.66671C19.6747 8.38546 20.6042 9.87087 20.6042 11.5Z" fill="currentColor"/>
</svg>
