<svg width="100" height="100" viewBox="0 0 100 100" fill="none" xmlns="http://www.w3.org/2000/svg">
<path fill-rule="evenodd" clip-rule="evenodd" d="M50.055 15.0687C54.3016 15.4624 57.6262 19.0351 57.6262 23.3843C57.6262 27.7338 54.3016 31.3065 50.055 31.6999C49.7979 31.7237 49.5375 31.7361 49.2745 31.7361C49.1696 31.7361 49.0652 31.7342 48.9614 31.7303H46.6607L46.6595 38.4173V39.2191V46.6594H37.7977C36.9167 43.6927 35.1449 41.1092 32.7925 39.2191C30.2172 37.15 26.9454 35.9117 23.3842 35.9117C19.8234 35.9117 16.5512 37.1497 13.9758 39.2191C11.6234 41.1092 9.8516 43.6927 8.97119 46.6594H0C0.166968 44.123 0.522321 41.6383 1.05288 39.2191C5.75377 17.7789 24.1827 1.47938 46.6595 0V6.68122L46.6607 15.0448H48.8219L48.9274 15.0399L49.0757 15.0352L49.1378 15.0338L49.2745 15.0328C49.4245 15.0328 49.5733 15.0366 49.721 15.0443C49.833 15.0503 49.9446 15.0585 50.055 15.0687ZM99.2596 59.2411C99.6195 57.3108 99.8683 55.3418 100 53.3406H91.3111L91.3096 53.3472C90.6878 55.5609 89.5717 57.5675 88.0888 59.2411C85.3349 62.3485 81.3135 64.3072 76.8345 64.3072C72.3555 64.3072 68.334 62.3485 65.5801 59.2411C64.0955 57.5658 62.9795 55.5569 62.3583 53.3406H53.341V59.2411L53.3416 61.992V68.4944H51.3791L51.2973 68.4902L51.2248 68.4875L51.071 68.4839L50.9453 68.4831C46.3328 68.4831 42.5936 72.2222 42.5936 76.8346C42.5936 80.8707 45.4562 84.2379 49.2618 85.0166C49.3453 85.0336 49.4289 85.0496 49.5129 85.064C49.62 85.0825 49.7282 85.0989 49.837 85.1135C50.1994 85.1615 50.5696 85.1864 50.9453 85.1864C51.0266 85.1864 51.1072 85.1853 51.188 85.1828L51.2781 85.1799H53.3416L53.3405 91.6775V100C76.3522 98.4853 95.1217 81.4363 99.2596 59.2411ZM100 46.6594H93.5377L85.1834 46.6602V49.0583C85.185 49.1301 85.1861 49.202 85.1861 49.2744C85.1861 49.5018 85.1768 49.7273 85.1592 49.9501C84.8154 54.2464 81.2196 57.626 76.8345 57.626C72.5104 57.626 68.9541 54.3397 68.5262 50.1284L68.5163 50.0249L68.5091 49.9452L68.4988 49.7956L68.4905 49.6379C68.4878 49.5716 68.4856 49.5048 68.4845 49.4382H68.4796V46.6602H63.6408H61.802L53.341 46.6594V37.8607C58.249 36.4851 62.1414 32.68 63.6408 27.8249C64.0742 26.4212 64.3076 24.9303 64.3076 23.3843C64.3076 21.8382 64.0742 20.3476 63.6408 18.9439L63.5782 18.747C63.5474 18.652 63.5161 18.5578 63.4837 18.4636C61.8821 13.8384 58.0858 10.238 53.341 8.90784V0C56.8874 0.233443 60.3339 0.836388 63.6408 1.76961C83.657 7.41885 98.5874 25.1926 100 46.6594ZM39.7074 86.8202C41.544 88.8853 43.9409 90.4409 46.6595 91.248V100C44.1616 99.8357 41.7126 99.4879 39.3285 98.9708C17.8336 94.3091 1.48238 75.8562 0 53.3406L8.54113 53.3417H15.0336L15.0336 51.0416L15.033 50.9447L15.0336 50.8479V50.5618H15.0419C15.0627 50.0914 15.1226 49.631 15.2187 49.1842C15.2675 48.9576 15.3253 48.7346 15.3917 48.5152L15.4087 48.4613C16.4661 45.0618 19.6373 42.5933 23.3848 42.5933C27.1503 42.5933 30.3342 45.0856 31.376 48.5105C31.5749 49.1639 31.6957 49.8513 31.7275 50.5618H31.7374V53.3417L38.2272 53.3406H39.3285H46.6595V62.4212C43.7508 63.2848 41.2079 65.0078 39.3285 67.2917C37.192 69.8879 35.9117 73.2101 35.9117 76.8346C35.9117 80.6673 37.3463 84.1652 39.7074 86.8202Z" fill="currentColor"/>
</svg>
